PathFileType	3	(X/Y/Z)	D:\Vicon Database\Healthy Subjects\S0040\Jan. 30, 2020\Force Plate Walk 5.trc
DataRate	CameraRate	NumFrames	NumMarkers	Units	OrigDataRate	OrigDataStartFrame	OrigNumFrames
100.0	100.0	4	53	mm	100.0	431	326	
Frame#	Time	right_foot_cluster2			right_foot_cluster3			sternum_cluster1			sternum_cluster2			sternum_cluster3			left_asis			right_asis			left_psis			right_psis			sacrum_cluster1			sacrum_cluster2			sacrum_cluster3			left_lat_femoral_epicondyle			left_anterior_thigh15			left_anterior_thigh25			left_anterior_thigh50			left_lateral_thigh25			left_lateral_thigh50			left_thigh_cluster1			left_thigh_cluster2			left_thigh_cluster3			left_fibular_head			left_tibial_tuberosity			left_anterior_shank30			left_lateral_malleolus			left_shank_cluster1			left_shank_cluster2			left_shank_cluster3			left_heel			left_metatarsal2			left_foot_cluster1			left_foot_cluster2			left_foot_cluster3			right_lat_femoral_epicondyle			right_anterior_thigh15			right_anterior_thigh25			right_anterior_thigh50			right_lateral_thigh25			right_lateral_thigh50			right_thigh_cluster1			right_thigh_cluster2			right_thigh_cluster3			right_fibular_head			right_tibial_tuberosity			right_lateral_distal_shank			right_anterior_shank30			right_lateral_malleolus			right_shank_cluster1			right_shank_cluster2			right_shank_cluster3			right_heel			right_metatarsal2			right_foot_cluster1			
		X1	Y1	Z1	X2	Y2	Z2	X3	Y3	Z3	X4	Y4	Z4	X5	Y5	Z5	X6	Y6	Z6	X7	Y7	Z7	X8	Y8	Z8	X9	Y9	Z9	X10	Y10	Z10	X11	Y11	Z11	X12	Y12	Z12	X13	Y13	Z13	X14	Y14	Z14	X15	Y15	Z15	X16	Y16	Z16	X17	Y17	Z17	X18	Y18	Z18	X19	Y19	Z19	X20	Y20	Z20	X21	Y21	Z21	X22	Y22	Z22	X23	Y23	Z23	X24	Y24	Z24	X25	Y25	Z25	X26	Y26	Z26	X27	Y27	Z27	X28	Y28	Z28	X29	Y29	Z29	X30	Y30	Z30	X31	Y31	Z31	X32	Y32	Z32	X33	Y33	Z33	X34	Y34	Z34	X35	Y35	Z35	X36	Y36	Z36	X37	Y37	Z37	X38	Y38	Z38	X39	Y39	Z39	X40	Y40	Z40	X41	Y41	Z41	X42	Y42	Z42	X43	Y43	Z43	X44	Y44	Z44	X45	Y45	Z45	X46	Y46	Z46	X47	Y47	Z47	X48	Y48	Z48	X49	Y49	Z49	X50	Y50	Z50	X51	Y51	Z51	X52	Y52	Z52	X53	Y53	Z53	
431	4.3	724.7995	102.55576	-199.68257	723.36249	105.99595	-236.90852	920.05786	1426.8502	-147.78316	905.46338	1400.2524	-139.839	907.55927	1403.3612	-177.69522	919.90179	1036.3357	-30.437643	914.89868	1060.3361	-279.38373	1085.8519	1051.3501	-82.357079	1086.9677	1059.9568	-200.6745	1096.7832	1112.6313	-144.19026	1101.4745	1087.8322	-158.2709	1104.3896	1079.813	-118.88358	1035.0469	514.29114	-1.0092572	916.3468	567.94684	-32.44466	892.14038	657.25403	-21.267763	888.43414	800.29913	-18.742996	1017.6287	659.22375	12.540281	994.32373	803.0332	32.806221	1005.9962	761.11755	37.773003	1010.7482	732.15308	35.864807	974.57623	738.39685	43.832161	1072.7571	453.67096	10.677791	1036.0123	401.43253	-35.565659				1363.1191	224.46458	-29.249647	1074.2487	358.21619	-60.913254	1095.1095	339.49966	-51.727398	1097.6378	344.06067	-89.867111	1406.0377	288.93088	-71.409744	1362.4441	74.71685	-71.578194	1324.828	140.48534	-54.931049	1340.1193	113.586	-48.604755	1326.1528	112.82651	-84.849014	821.86816	532.39789	-292.5643	772.31268	641.6333	-233.53264	783.53247	721.09686	-232.57764	824.08466	841.9729	-241.30861	866.08923	686.28571	-321.74216	913.91943	826.30573	-349.7843	902.71051	773.45416	-356.70038	884.1059	752.22089	-351.06665	920.3454	738.54053	-350.08423	821.80298	463.36255	-294.32965	771.85913	462.16449	-243.51625	828.6297	194.86273	-271.98474	787.79456	211.65324	-221.81015	834.03687	94.052498	-254.98927	786.43628	395.55585	-187.8053	791.84937	367.79977	-180.71562	765.99969	365.30566	-206.80142	909.64557	60.000511	-220.88824	691.43909	70.987862	-209.00345	748.49127	115.99599	-209.23265
432	4.31	724.33038	102.08671	-199.55516	723.0777	105.51497	-236.81807	905.19897	1428.1453	-147.91461	890.64807	1401.5577	-139.90681	892.48712	1404.6616	-177.76482	906.03162	1037.4141	-30.427044	900.06238	1062.1246	-279.18442	1071.7206	1052.1436	-82.153397	1072.4485	1061.2212	-200.6402	1082.2488	1113.4318	-144.09972	1086.729	1088.7885	-158.3266	1089.9902	1080.6995	-118.87554	1007.8311	513.70038	-1.3494074	891.4035	569.82635	-33.727814	870.27081	659.57648	-21.878838	870.9754	802.65967	-18.594219	995.45313	658.48688	12.230162	977.23907	802.88568	32.135326	987.42761	760.78674	37.229687	991.55859	731.49664	35.257595	955.4436	739.06732	43.705128	1044.5886	453.45755	10.787535	1007.5865	401.48746	-36.006454				1338.6663	230.56615	-28.728235	1047.111	358.36636	-60.715107	1068.0974	340.12781	-51.635967	1070.3676	344.21042	-89.465279	1382.1675	294.7001	-70.274841	1338.403	80.097137	-71.770134	1300.0454	147.14095	-54.742886	1315.0347	119.95712	-48.391239	1301.4226	119.49685	-84.74218	814.24213	531.60925	-293.16599	762.00195	639.73181	-235.5815	771.74249	719.68854	-233.71684	810.58337	841.2298	-241.79051	855.85205	686.22101	-322.23834	901.24274	827.31171	-349.62894	890.41791	774.49683	-356.72412	872.06091	752.88544	-351.26917	908.74457	739.74866	-350.28159	814.9588	462.87387	-295.09418	764.25269	460.81436	-244.8667	826.30908	194.32396	-272.1749	784.92505	210.43391	-222.40588	833.4566	94.005157	-254.91968	778.98938	394.13217	-188.85155	785.44269	366.31339	-181.66969	759.47449	363.57767	-208.12718	909.40875	59.921951	-220.56824	691.17993	70.253845	-208.96431	748.13708	115.4825	-209.03067
433	4.32	724.13806	101.67558	-199.412	722.88843	105.23135	-236.6375	890.47516	1429.5649	-147.95523	875.92676	1402.9868	-139.83578	877.59772	1406.0137	-177.68536	892.37677	1038.832	-30.177023	885.28888	1063.9305	-278.85202	1057.7733	1053.0193	-82.350029	1057.9326	1062.6934	-200.75293	1067.9003	1114.8663	-143.83382	1072.2845	1090.1056	-158.36102	1075.8698	1081.8907	-118.98734	980.5459	513.46149	-1.7892767	866.60492	572.40839	-35.395622	848.68536	662.43109	-23.024918	853.80896	805.45306	-18.587191	973.22284	658.0174	11.837345	960.47473	803.30554	31.498472	969.33777	760.52863	37.061604	972.46716	731.30853	34.836548	936.50293	739.63251	43.444691	1016.4765	453.72409	10.83128	976.87268	403.19614	-35.588421				1312.8672	236.0325	-28.732248	1019.1486	359.8768	-60.947697	1039.7141	341.96155	-51.716347	1043.9346	346.43616	-90.04203	1359.2555	299.02353	-69.426918	1308.2599	86.153267	-71.909485	1272.0563	154.48141	-55.382393	1286.6333	126.2182	-49.339329	1273.1152	126.52485	-85.50502	807.1463	530.70972	-293.43311	752.72089	637.8786	-236.36487	760.75452	718.01837	-234.37668	797.44733	840.48291	-242.3019	846.51624	685.69568	-322.1181	888.5705	828.12189	-349.56805	878.73151	774.91888	-356.69604	860.97089	753.02991	-351.03329	897.53552	740.48499	-350.21902	808.65625	462.17734	-295.51654	757.54443	459.36844	-245.61952	824.42847	193.78471	-272.28479	782.47894	209.12981	-222.77643	832.97186	93.956528	-254.79289	772.51807	392.77475	-189.17848	779.81586	364.89706	-182.27946	754.14813	361.59225	-208.7589	909.25848	60.046299	-220.55986	690.97174	69.729431	-208.94112	747.992	115.0905	-208.8421
434	4.33	723.90277	101.30554	-199.19067	722.68195	104.9338	-236.39948	875.83099	1431.1512	-147.90112	861.35114	1404.5303	-139.62271	862.83154	1407.5438	-177.50974	878.92084	1040.489	-29.796316	870.53577	1065.6649	-278.44565	1044.0265	1054.2666	-82.816338	1043.7841	1064.4674	-200.83728	1053.8667	1116.1074	-144.34671	1058.2573	1091.6698	-158.56123	1061.9021	1083.3403	-119.37886	953.29407	513.90594	-2.2947779	842.00824	575.72815	-36.980377	827.29877	665.87805	-24.453575	836.50464	808.4798	-18.324078	950.93359	658.03687	11.182039	943.52863	804.12054	31.257227	950.80096	760.59998	36.72776	953.25854	731.34967	34.474937	917.40851	740.62476	43.187588	988.37677	455.14001	10.441875	948.10468	404.58563	-36.500526				1285.5796	240.27769	-29.215322	990.27417	362.04599	-61.799511	1011.9504	344.26324	-52.549747	1015.4216	348.85117	-90.98349	1335.0294	301.73932	-69.189003	1274.2955	92.203064	-71.739357	1242.7219	160.03833	-56.950172	1255.5995	131.94862	-50.302006	1243.3347	132.16281	-86.824646	800.4101	529.69342	-293.42264	744.02509	636.25366	-235.85974	750.50006	716.4715	-234.1792	784.81976	839.79193	-242.68956	837.12964	685.23236	-321.98141	876.32001	828.63776	-349.31039	867.97131	775.18738	-356.41223	850.2121	752.9079	-350.82306	886.87585	741.1347	-349.9541	802.74603	461.297	-295.51276	751.58063	457.90585	-245.76346	822.78638	193.22403	-272.02911	780.46875	207.91127	-222.79437	832.48389	94.000038	-254.53308	766.81708	391.99927	-188.96916	775.25635	363.59192	-182.24643	749.33228	360.00125	-208.73404	909.25922	60.438393	-220.62186	690.56128	69.295822	-208.77899	747.72559	114.78259	-208.5491
